# xmcd CD database file
#
# Track frame offsets:
#	150
#	19942
#	40210
#	58137
#	71190
#	85895
#	105642
#	122775
#	139265
#	157852
#	177230
#
# Disc length: 2472 seconds
#
# Revision: 4
# Processed by: cddbd v1.5.2PL0 Copyright (c) Steve Scherf et al.
# Submitted via: CDex 1.70beta2
#
DISCID=9809a60b
DTITLE=Enya - performed by Mary McDowell - Sound of Enya - CD2
DYEAR=2003
DGENRE=New Age
TTITLE0=May It Be (from Lord of the Rings)
TTITLE1=China Roses
TTITLE2=Caribbean Blue
TTITLE3=Book Of Days
TTITLE4=Only If
TTITLE5=How Can I Keep From Singing
TTITLE6=Wild Child
TTITLE7=Only Time
TTITLE8=Flora's Secret
TTITLE9=The Memory Of Trees
TTITLE10=I Will Find You
EXTD=YEAR: 2003
EXTT0=
EXTT1=
EXTT2=
EXTT3=
EXTT4=
EXTT5=
EXTT6=
EXTT7=
EXTT8=
EXTT9=
EXTT10=
PLAYORDER=
